<mxfile host="app.diagrams.net" modified="2023-12-06T05:47:59.501Z" agent="Mozilla/5.0 (Windows NT 10.0; Win64; x64) AppleWebKit/537.36 (KHTML, like Gecko) Chrome/119.0.0.0 Safari/537.36 Edg/119.0.0.0" etag="5eoB9ZRD_40d_H1Vueet" version="22.1.5" type="google">
  <diagram name="Page-1" id="oZJ61f9hxRfZGB52BDo2">
    <mxGraphModel grid="1" page="1" gridSize="10" guides="1" tooltips="1" connect="1" arrows="1" fold="1" pageScale="1" pageWidth="850" pageHeight="1100" math="0" shadow="0">
      <root>
        <mxCell id="0" />
        <mxCell id="1" parent="0" />
        <mxCell id="XKfPeT3oH0wZ-IF9RCkf-6" style="edgeStyle=orthogonalEdgeStyle;rounded=0;orthogonalLoop=1;jettySize=auto;html=1;" edge="1" parent="1" source="XKfPeT3oH0wZ-IF9RCkf-1" target="XKfPeT3oH0wZ-IF9RCkf-2">
          <mxGeometry relative="1" as="geometry" />
        </mxCell>
        <mxCell id="XKfPeT3oH0wZ-IF9RCkf-1" value="start" style="ellipse;whiteSpace=wrap;html=1;" vertex="1" parent="1">
          <mxGeometry x="360" y="350" width="120" height="80" as="geometry" />
        </mxCell>
        <mxCell id="XKfPeT3oH0wZ-IF9RCkf-7" style="edgeStyle=orthogonalEdgeStyle;rounded=0;orthogonalLoop=1;jettySize=auto;html=1;exitX=0.5;exitY=1;exitDx=0;exitDy=0;" edge="1" parent="1" source="XKfPeT3oH0wZ-IF9RCkf-2" target="XKfPeT3oH0wZ-IF9RCkf-3">
          <mxGeometry relative="1" as="geometry" />
        </mxCell>
        <mxCell id="XKfPeT3oH0wZ-IF9RCkf-2" value="input &lt;br&gt;num1 and &lt;br&gt;num2" style="shape=parallelogram;perimeter=parallelogramPerimeter;whiteSpace=wrap;html=1;fixedSize=1;" vertex="1" parent="1">
          <mxGeometry x="365" y="480" width="120" height="60" as="geometry" />
        </mxCell>
        <mxCell id="XKfPeT3oH0wZ-IF9RCkf-8" style="edgeStyle=orthogonalEdgeStyle;rounded=0;orthogonalLoop=1;jettySize=auto;html=1;exitX=0.5;exitY=1;exitDx=0;exitDy=0;" edge="1" parent="1" source="XKfPeT3oH0wZ-IF9RCkf-3" target="XKfPeT3oH0wZ-IF9RCkf-4">
          <mxGeometry relative="1" as="geometry" />
        </mxCell>
        <mxCell id="XKfPeT3oH0wZ-IF9RCkf-3" value="sum= num1+num2" style="rounded=0;whiteSpace=wrap;html=1;" vertex="1" parent="1">
          <mxGeometry x="360" y="590" width="120" height="60" as="geometry" />
        </mxCell>
        <mxCell id="XKfPeT3oH0wZ-IF9RCkf-9" style="edgeStyle=orthogonalEdgeStyle;rounded=0;orthogonalLoop=1;jettySize=auto;html=1;exitX=0.5;exitY=1;exitDx=0;exitDy=0;entryX=0.5;entryY=0;entryDx=0;entryDy=0;" edge="1" parent="1" source="XKfPeT3oH0wZ-IF9RCkf-4" target="XKfPeT3oH0wZ-IF9RCkf-5">
          <mxGeometry relative="1" as="geometry" />
        </mxCell>
        <mxCell id="XKfPeT3oH0wZ-IF9RCkf-4" value="print sum" style="shape=parallelogram;perimeter=parallelogramPerimeter;whiteSpace=wrap;html=1;fixedSize=1;" vertex="1" parent="1">
          <mxGeometry x="360" y="690" width="120" height="60" as="geometry" />
        </mxCell>
        <mxCell id="XKfPeT3oH0wZ-IF9RCkf-5" value="end" style="ellipse;whiteSpace=wrap;html=1;" vertex="1" parent="1">
          <mxGeometry x="360" y="790" width="120" height="80" as="geometry" />
        </mxCell>
      </root>
    </mxGraphModel>
  </diagram>
</mxfile>
